<svg width="47" height="16" viewBox="0 0 47 16" fill="none" xmlns="http://www.w3.org/2000/svg">
<path d="M45.6172 9.43224L46.9254 10.3043C46.5008 10.9297 45.4853 12.0026 43.7297 12.0026C41.5495 12.0026 39.9259 10.3158 39.9259 8.17003C39.9259 5.88662 41.5667 4.33752 43.5461 4.33752C45.5369 4.33752 46.5122 5.92098 46.8279 6.77584L47 7.21192L41.8708 9.33471C42.261 10.1035 42.8692 10.4937 43.7297 10.4937C44.5903 10.4937 45.1869 10.0691 45.6172 9.43224ZM41.5955 8.04965L45.0206 6.62673C44.8313 6.15058 44.2691 5.81212 43.5977 5.81212C42.7429 5.81212 41.5553 6.56944 41.5955 8.04965Z" fill="#FF302F"/>
<path d="M37.4531 0.43039H39.1054V11.6526H37.4531V0.430298V0.43039Z" fill="#20B15A"/>
<path d="M34.8484 4.6358H36.4433V11.4518C36.4433 14.2802 34.7738 15.4449 32.8001 15.4449C30.9413 15.4449 29.8226 14.1942 29.4037 13.1787L30.8667 12.5705C31.1305 13.1958 31.7674 13.936 32.8001 13.936C34.068 13.936 34.8484 13.15 34.8484 11.6813V11.1305H34.791C34.4123 11.5894 33.6894 12.0025 32.7715 12.0025C30.8552 12.0025 29.0995 10.3329 29.0995 8.18151C29.0995 6.01848 30.8552 4.33179 32.7715 4.33179C33.6837 4.33179 34.4123 4.73914 34.791 5.18665H34.8484V4.6359V4.6358ZM34.963 8.18151C34.963 6.82748 34.0623 5.84064 32.9149 5.84064C31.7559 5.84064 30.7806 6.82748 30.7806 8.18151C30.7806 9.51823 31.7559 10.4878 32.9149 10.4878C34.0624 10.4936 34.9631 9.51823 34.9631 8.18151H34.963Z" fill="#3686F7"/>
<path d="M20.0289 8.15279C20.0289 10.3617 18.3078 11.9853 16.1964 11.9853C14.0851 11.9853 12.3639 10.356 12.3639 8.15279C12.3639 5.93247 14.0851 4.31458 16.1964 4.31458C18.3078 4.31458 20.0289 5.93247 20.0289 8.15279ZM18.3536 8.15279C18.3536 6.77591 17.3553 5.82914 16.1964 5.82914C15.0375 5.82914 14.0392 6.77591 14.0392 8.15279C14.0392 9.51824 15.0375 10.4764 16.1964 10.4764C17.3554 10.4764 18.3536 9.51824 18.3536 8.15279Z" fill="#FF302F"/>
<path d="M28.3996 8.17003C28.3996 10.3789 26.6784 12.0025 24.5671 12.0025C22.4558 12.0025 20.7346 10.3788 20.7346 8.17003C20.7346 5.94971 22.4558 4.33752 24.5671 4.33752C26.6784 4.33752 28.3996 5.944 28.3996 8.17003ZM26.7185 8.17003C26.7185 6.79315 25.7203 5.84638 24.5613 5.84638C23.4024 5.84638 22.4041 6.79315 22.4041 8.17003C22.4041 9.53548 23.4024 10.4937 24.5613 10.4937C25.726 10.4937 26.7185 9.52977 26.7185 8.17003Z" fill="#FFBA40"/>
<path d="M6.06433 10.3215C3.66037 10.3215 1.77861 8.38227 1.77861 5.97831C1.77861 3.57444 3.66037 1.63521 6.06433 1.63521C7.36099 1.63521 8.30758 2.14581 9.00753 2.79989L10.1608 1.64672C9.18546 0.711554 7.88309 0 6.06433 0C2.77116 9.20987e-05 0 2.68523 0 5.97831C0 9.27157 2.77116 11.9566 6.06433 11.9566C7.84294 11.9566 9.18546 11.3714 10.2354 10.2813C11.314 9.20268 11.6467 7.68803 11.6467 6.46026C11.6467 6.07584 11.6008 5.68 11.5492 5.3874H6.06433V6.98237H9.97143C9.85668 7.98072 9.54115 8.66345 9.07642 9.12808C8.51415 9.69615 7.62494 10.3215 6.06433 10.3215Z" fill="#3686F7"/>
</svg>
